<svg xmlns="http://www.w3.org/2000/svg"  viewBox="0 0 48 48" width="48px" height="48px" baseProfile="basic"><path fill="#6c19ff" d="M41.197,29.631c0.312-1.333,0.47-2.694,0.47-4.048c0-7.246-4.33-13.661-11.042-16.376l-0.63-4.202	H18.005l-0.63,4.202c-6.712,2.715-11.042,9.13-11.042,16.376c0,1.354,0.158,2.715,0.47,4.047l-3.066,2.94l6.923,9.788l3.795-1.912	C17.306,42.28,20.604,43.25,24,43.25c3.396,0,6.693-0.969,9.544-2.803l3.795,1.911l6.923-9.787L41.197,29.631z M36.653,39.848	l-3.294-1.66l-0.805,0.524c-2.549,1.664-5.507,2.543-8.556,2.543c-3.05,0-6.008-0.879-8.556-2.543l-0.805-0.524l-3.294,1.66	L6.322,32.75l2.66-2.552l-0.225-0.931c-0.293-1.215-0.441-2.458-0.441-3.694c0-6.466,3.885-12.187,9.897-14.576l0.891-0.353L19.65,7	h8.698l0.547,3.644l0.89,0.353c6.012,2.389,9.897,8.11,9.897,14.576c0,1.237-0.148,2.479-0.441,3.694l-0.225,0.931l2.66,2.552	L36.653,39.848z"/><path fill="none" d="M24.993,17.063l-0.003,2.689h1.685L24,25l-2.676-5.248h1.686l0.003-2.69	C18.79,17.554,15.5,21.148,15.5,25.5c0,1.47,0.376,2.854,1.035,4.061l2.143-1.444l-0.943-1.397L23.581,26l-2.851,5.155l-0.943-1.397	l-2.099,1.415C19.245,32.903,21.494,34,24,34c2.522,0,4.785-1.111,6.343-2.861l-2.048-1.381l-0.943,1.397L24.5,26l5.846,0.72	l-0.943,1.397l2.083,1.404c0.646-1.198,1.014-2.567,1.014-4.021C32.5,21.15,29.213,17.557,24.993,17.063z"/><path fill="#6c19ff" d="M21.324,19.752L24,25l2.676-5.248H24.99l0.003-2.689C24.667,17.025,24.336,17,24,17	c-0.334,0-0.663,0.024-0.987,0.062l-0.003,2.69H21.324z"/><path fill="#6c19ff" d="M24.995,15.05L24.998,12h-1.98l-0.003,3.05C23.339,15.02,23.667,15,24,15	C24.336,15,24.667,15.019,24.995,15.05z"/><path fill="#6c19ff" d="M20.73,31.155L23.581,26l-5.846,0.72l0.943,1.397l-2.143,1.444c0.319,0.584,0.711,1.12,1.153,1.611	l2.099-1.415L20.73,31.155z"/><path fill="#6c19ff" d="M12.25,32.449l1.109,1.641l2.656-1.79c-0.428-0.502-0.809-1.045-1.137-1.622L12.25,32.449z"/><path fill="#6c19ff" d="M30.346,26.72L24.5,26l2.851,5.155l0.943-1.397l2.048,1.381c0.439-0.493,0.827-1.032,1.143-1.618	l-2.083-1.404L30.346,26.72z"/><path fill="#6c19ff" d="M35.831,32.449l-2.685-1.81c-0.326,0.578-0.704,1.123-1.13,1.627l2.707,1.824L35.831,32.449z"/><path fill="#6c19ff" d="M15.5,25.5c0-4.352,3.29-7.946,7.513-8.438l0.002-2.012C17.686,15.549,13.5,20.043,13.5,25.5	c0,1.884,0.505,3.649,1.377,5.179l1.658-1.117C15.876,28.354,15.5,26.97,15.5,25.5z"/><path fill="#6c19ff" d="M32.5,25.5c0,1.454-0.368,2.823-1.014,4.021l1.661,1.119c0.858-1.521,1.354-3.272,1.354-5.14	c0-5.454-4.181-9.946-9.505-10.45l-0.002,2.013C29.213,17.557,32.5,21.15,32.5,25.5z"/><path fill="#6c19ff" d="M24,34c-2.506,0-4.755-1.097-6.312-2.827l-1.673,1.128C17.942,34.56,20.804,36,24,36	c3.212,0,6.089-1.453,8.016-3.733l-1.673-1.128C28.785,32.889,26.522,34,24,34z"/><path fill="#2100c4" d="M24,17c0.336,0,0.667,0.025,0.993,0.063l0.002-2.013C24.667,15.019,24.336,15,24,15	c-0.333,0-0.661,0.02-0.985,0.05l-0.002,2.012C23.337,17.024,23.666,17,24,17z"/><path fill="#2100c4" d="M16.535,29.561l-1.658,1.117c0.329,0.577,0.709,1.12,1.137,1.622l1.673-1.128	C17.246,30.682,16.854,30.145,16.535,29.561z"/><path fill="#2100c4" d="M31.486,29.521c-0.316,0.586-0.704,1.125-1.143,1.618l1.673,1.128	c0.426-0.504,0.804-1.049,1.13-1.627L31.486,29.521z"/></svg>